<?xml version="1.0" encoding="utf-8"?>
<!-- Generator: Adobe Illustrator 25.0.0, SVG Export Plug-In . SVG Version: 6.00 Build 0)  -->
<svg version="1.1" id="Calque_1" xmlns="http://www.w3.org/2000/svg" xmlns:xlink="http://www.w3.org/1999/xlink" x="0px" y="0px"
	 viewBox="0 0 342.2 496.8" style="enable-background:new 0 0 342.2 496.8;" xml:space="preserve">
<style type="text/css">
	.st0{fill:#F7F5E8;}
	.st1{fill:#89181A;}
	.st2{clip-path:url(#SVGID_2_);}
	.st3{fill:#E5E3D6;}
	.st4{clip-path:url(#SVGID_4_);}
</style>
<g>
	<g>
		<path class="st0" d="M69.8,3.8h268.4v423.7c0,35.9-29.1,65.1-65.1,65.1H69.8c-35.9,0-65.1-29.1-65.1-65.1V68.9
			C4.7,33,33.9,3.8,69.8,3.8z"/>
		<path class="st1" d="M69.8,3.4c22.4,0,44.7-0.1,67.1-0.3l16.8-0.2l16.8-0.2L204,2.1l67.1-1.2l33.5-0.5L338.2,0l3.8,0l0,3.8
			c0.4,53.8,0.2,107.7-0.5,161.5c-0.7,53.8-1.7,107.7-1.8,161.5l-0.1,40.4l0.1,40.4l0.1,20.2c0,3.5-0.3,6.9-0.8,10.3
			c-0.5,3.4-1.3,6.8-2.4,10.1c-4.1,13.2-12.5,25-23.6,33.4c-11.1,8.4-24.9,13.2-38.9,13.5l-40.4,0.5l-40.4,0.4l-40.4,0.3l-80.8,0.4
			l-2.5,0l-2.7-0.1c-0.9,0-1.8-0.1-2.7-0.2c-0.9-0.1-1.8-0.1-2.7-0.2c-3.6-0.4-7.1-1.1-10.6-2c-3.5-0.9-6.9-2.2-10.1-3.7
			s-6.4-3.2-9.4-5.2c-12.1-7.9-21.5-19.6-26.7-33.1c-2.6-6.7-4.1-13.9-4.6-21.1C0,427.6,0,424.3,0,421l0-10.1l0-40.4l0.3-80.8
			c0-13.5,0.2-26.9,0.3-40.4C0.6,235.9,0.8,222.4,1,209c0.1-13.5,0.4-26.9,0.7-40.4l0.7-40.4l0.7-40.4c0.1-6.7,0.2-13.4,0.3-20.2
			c0.1-3.4,0.5-6.8,1.1-10.2c0.3-1.7,0.7-3.3,1.1-5c0.5-1.6,0.9-3.3,1.5-4.9C9.6,41.1,12.9,35,17,29.6c4.1-5.4,9.1-10.2,14.6-14.1
			C42.7,7.6,56.2,3.3,69.8,3.4z M69.8,4.3c-13.4,0-26.7,4.3-37.5,12.2c-5.4,3.9-10.1,8.7-14.1,14.1c-3.9,5.4-7,11.3-9.1,17.6
			c-1.1,3.1-1.8,6.4-2.3,9.6C6.3,61.1,6,64.4,6,67.7c0,6.7,0.2,13.4,0.3,20.2l0.7,40.4l0.7,40.4C8,182.1,8.3,195.5,8.5,209
			c0.2,13.5,0.4,26.9,0.5,40.4c0.1,13.5,0.3,26.9,0.3,40.4l0.3,80.8l0,40.4l0,10.1c0,3.4,0,6.8,0.1,9.8c0.2,3.1,0.6,6.2,1.2,9.3
			c0.6,3.1,1.5,6.1,2.6,9c4.4,11.7,12.5,22,23,29c2.6,1.8,5.4,3.3,8.2,4.6c2.8,1.3,5.8,2.4,8.8,3.3c3,0.9,6.1,1.5,9.2,1.9
			c0.8,0.1,1.6,0.2,2.3,0.2s1.6,0.2,2.4,0.2l2.4,0.1l2.5,0l80.8,0.4l40.4,0.3l40.4,0.4l40.3,0.5c12.9,0,25.9-4.2,36.4-11.8
			c10.6-7.6,18.7-18.6,22.9-31c2.1-6.2,3.2-12.8,3.3-19.3l0.1-20.2l0.1-40.4l-0.1-40.4c-0.2-53.8-1.1-107.7-1.8-161.5
			c-0.7-53.8-1-107.7-0.5-161.5l3.8,3.8l-33.5-0.4l-33.5-0.5L204,5.6L170.4,5l-16.8-0.2l-16.8-0.2C114.5,4.4,92.2,4.3,69.8,4.3z"/>
	</g>
	<g>
		<g>
			<defs>
				<path id="SVGID_1_" d="M4.7,68.9C4.7,33,33.9,3.8,69.8,3.8h268.4v423.7c0,35.9-33.8,60-65.7,61.3L6.8,485.4L4.7,68.9"/>
			</defs>
			<clipPath id="SVGID_2_">
				<use xlink:href="#SVGID_1_"  style="overflow:visible;"/>
			</clipPath>
			<g class="st2">
				<g>
					<path class="st0" d="M299.8,220.3c-9.6,0-49.1-0.1-57.4-0.2c-7.1-0.1-6.3-69.4-6.1-98.3c0-7.6,0.5-11.7-0.5-11.2
						c0,35.5,0.7,75.1,0.7,111.5c-42.9,0-83.9-1.4-127.1-1.4c3.7-7,67.6-124,96.2-175.5c4.7-8.5,8.2-9.4,16.9-6.1
						c19,7.1,33.9,15.2,50.9,25.9c2.9,1.8,7,5.2,7,7.9L299.8,220.3z"/>
					<path class="st1" d="M239.7,225.4h-3.3c-21.4,0-42.8-0.3-63.4-0.7c-20.7-0.3-42.1-0.7-63.7-0.7h-5.5l2.6-4.9
						c3.3-6.2,67.5-123.7,96.3-175.6c5.4-9.7,10.5-11.5,21-7.6c20,7.5,35,15.9,51.5,26.2c2,1.2,8.3,5.6,8.6,10.5l19.8,151h-3.8
						c-9.3,0-49.1-0.1-57.5-0.2c-1,0-1.8-0.3-2.6-0.8V225.4z M114.9,217.4c19.7,0.1,39.3,0.4,58.2,0.7c19.5,0.3,39.7,0.6,60,0.7
						c0-17.3-0.2-35.5-0.3-53.1c-0.2-18.4-0.3-37.4-0.3-55.1v-2.1l1.8-0.9c1.2-0.6,2.5-0.5,3.5,0.2c2,1.3,2,3.2,1.9,8.7
						c0,1.5-0.1,3.3-0.1,5.3l0,5.2c-0.1,14.3-0.2,36,0.3,54.5c0.8,26.3,2.7,33.4,3.6,35.4c9.1,0.1,39.7,0.2,52.5,0.2L277.1,73.1
						l0-0.2c-0.1-0.8-2.3-3.2-5.5-5.2c-16.1-10.1-30.9-18.3-50.3-25.6c-7.4-2.8-9.1-2.2-12.9,4.6
						C182.5,93.5,127.8,193.6,114.9,217.4z"/>
				</g>
				<g>
					<path class="st0" d="M106.5,229.5c0-29.9,0-90.1,0-117.1c0.4-1.1-0.9-1.4-0.9,11.7c0,29.2-1.3,93.5-1.3,97.2
						c-10.7,0-51.9,0-62.8,0L60,77.8c-0.1-7.2,2.7-10.3,9.1-13.4c19.9-9.8,36.9-16.3,55.2-24.8c5.8-2.7,9-2,12.2,3.8
						c8.7,16,35.6,62.4,35.6,62.4C155.1,136.4,108.8,226.4,106.5,229.5z"/>
					<path class="st1" d="M103.2,239.5v-14.8H37.8L56.7,77.6c0-9,4.2-12.9,11-16.2C79.3,55.7,90,51,100.3,46.6
						c7.7-3.3,15-6.5,22.6-10c7.6-3.5,12.7-1.9,16.5,5.2c8.6,15.8,35.3,61.8,35.6,62.3l1,1.6l-0.9,1.7
						c-9.3,16.7-27.4,51.4-42.1,79.3c-16.4,31.4-22.8,43.4-23.9,44.9L103.2,239.5z M45.3,218h55.7c0-2.4,0.1-5.9,0.2-10.2
						c0.4-21.7,1.1-62.2,1.1-83.7c0-13.9,1.2-14.5,2.9-15.2l2-0.9l1.6,1.5c0.9,0.8,1.3,2,1,3.3v103.7c4.4-8.4,10.8-20.5,17.3-33
						c14.2-27,31.7-60.5,41.2-77.8c-4.9-8.4-27.1-46.7-34.8-60.8c-2.2-4-3.4-4.4-7.9-2.4c-7.7,3.6-15.4,6.9-22.8,10.1
						c-10.3,4.4-20.9,9-32.3,14.7c-5.8,2.9-7.3,5-7.3,10.4l0,0.2l0,0.2L45.3,218z"/>
				</g>
				<g>
					<path class="st0" d="M242.2,317.2c-49.2,0-97.2,0-145.8,0c0-7.4,0-79.5,0-87.9c4.5,0,8.8,0,13.1,0c39.2,0,78.5,0,117.8,0
						c15.7,0,15.7,0,15.5,13.8C242.7,245.8,242.4,313.7,242.2,317.2z"/>
					<path class="st1" d="M245.5,320.7H93v-94.8l63.9,0c23.5,0,46.9,0,70.4,0h0.1c0,0,0.1,0,0.1,0c8.9,0,13.3,0,16.2,2.9
						c2.8,2.8,2.7,6.9,2.6,14.4c0,0.7,0,5.6-0.1,12.7c-0.1,28.4-0.3,59-0.5,61.5L245.5,320.7z M99.9,313.8h138.9
						c0.2-10.3,0.3-41.6,0.4-57.9c0-7.1,0.1-12.1,0.1-12.8c0.1-4.3,0.2-8.7-0.6-9.4c-0.8-0.8-5.9-0.9-11.2-0.9c0,0-0.1,0-0.1,0h-0.1
						c-23.5,0-46.9,0-70.4,0l-56.9,0V313.8z"/>
				</g>
				<g>
					<path class="st3" d="M212.3,37.4c-9.4,16-31.8,50.7-41.7,67.6c-9.8-16.7-29.1-50.4-38.6-66.6C151.1,38.4,192.7,37.4,212.3,37.4
						z"/>
					<path class="st1" d="M170.7,111.5l-2.9-4.9c-4.9-8.3-12.3-21.2-19.5-33.6c-7.1-12.3-14.4-25-19.2-33l-2.9-5h5.8
						c9.4,0,24.7-0.3,39.5-0.5c15.2-0.3,30.9-0.5,40.8-0.5h5.8l-2.9,5c-4.7,7.9-12.3,20.1-20.3,33c-8,12.8-16.3,26.1-21.4,34.6
						L170.7,111.5z M137.8,41.7c4.6,7.8,10.5,18.1,16.3,28.1c5.9,10.2,11.9,20.6,16.6,28.7c5-8.4,11.9-19.3,18.6-29.9
						c6.5-10.3,12.7-20.2,17.2-27.8c-9.6,0.1-22.4,0.3-34.8,0.5C159.6,41.4,147.1,41.6,137.8,41.7z"/>
				</g>
				<g>
					<polygon class="st1" points="90.3,169.3 90.3,250.6 249,250.6 249,171.3 					"/>
					<path class="st1" d="M250,251.7H89.2v-83.5l160.8,2.1V251.7z M91.4,249.6h156.6v-77.2l-156.6-2V249.6z"/>
				</g>
			</g>
		</g>
		<g>
			<defs>
				<path id="SVGID_3_" d="M4.7,68.9C4.7,33,33.9,3.8,69.8,3.8h268.4v423.7c0,35.9-33.8,60-65.7,61.3L6.8,485.4L4.7,68.9"/>
			</defs>
			<clipPath id="SVGID_4_">
				<use xlink:href="#SVGID_3_"  style="overflow:visible;"/>
			</clipPath>
			<g class="st4">
				<g>
					<g>
						<path class="st0" d="M162.5,361.4c0-9-6.3-16.3-14-16.3h-43.8c-7.7,0-14,7.3-14,16.3v89.9c0,9,6.3,16.3,14,16.3h43.8
							c7.7,0,14-7.3,14-16.3V361.4z"/>
						<path class="st1" d="M148.5,470.9h-43.8c-9.6,0-17.3-8.8-17.3-19.6v-89.8c0-10.8,7.8-19.6,17.3-19.6h43.8
							c9.6,0,17.3,8.8,17.3,19.6v89.8C165.9,462.1,158.1,470.9,148.5,470.9z M104.8,348.5c-5.9,0-10.7,5.8-10.7,13v89.8
							c0,7.2,4.8,13,10.7,13h43.8c5.9,0,10.7-5.8,10.7-13v-89.8c0-7.2-4.8-13-10.7-13H104.8z"/>
					</g>
					<g>
						<path class="st1" d="M126.7,382.7c-3.7,0-6.6-3-6.6-6.6v-14.6c0-3.7,3-6.6,6.6-6.6s6.6,3,6.6,6.6v14.6
							C133.3,379.8,130.3,382.7,126.7,382.7z"/>
						<path class="st1" d="M102.4,423.7c-0.7,0-1.3-0.1-2-0.3c-3.5-1.1-5.5-4.8-4.4-8.3c0.1-0.4,3.5-11,8.3-21.7
							c7.6-16.9,14.5-24.3,22.4-23.9c7.8-0.4,14.8,7,22.4,23.9c4.8,10.6,8.1,21.2,8.3,21.7c1.1,3.5-0.9,7.2-4.4,8.3
							c-3.5,1.1-7.2-0.9-8.3-4.4c-5.3-17.1-13.7-34.1-17.8-36.2c-0.1,0-0.2,0-0.3,0c-4.1,2.2-12.4,19.2-17.8,36.2
							C107.9,421.8,105.2,423.7,102.4,423.7z"/>
					</g>
				</g>
				<g>
					<g>
						<path class="st0" d="M250.5,361.4c0-9-6.3-16.3-14-16.3h-43.8c-7.7,0-14,7.3-14,16.3v89.9c0,9,6.3,16.3,14,16.3h43.8
							c7.7,0,14-7.3,14-16.3V361.4z"/>
						<path class="st1" d="M236.5,470.9h-43.8c-9.6,0-17.3-8.8-17.3-19.6v-89.8c0-10.8,7.8-19.6,17.3-19.6h43.8
							c9.6,0,17.3,8.8,17.3,19.6v89.8C253.9,462.1,246.1,470.9,236.5,470.9z M192.8,348.5c-5.9,0-10.7,5.8-10.7,13v89.8
							c0,7.2,4.8,13,10.7,13h43.8c5.9,0,10.7-5.8,10.7-13v-89.8c0-7.2-4.8-13-10.7-13H192.8z"/>
					</g>
					<g>
						<path class="st1" d="M214.7,382.7c-3.7,0-6.6-3-6.6-6.6v-14.6c0-3.7,3-6.6,6.6-6.6s6.6,3,6.6,6.6v14.6
							C221.3,379.8,218.3,382.7,214.7,382.7z"/>
						<path class="st1" d="M190.4,423.7c-0.7,0-1.3-0.1-2-0.3c-3.5-1.1-5.5-4.8-4.4-8.3c0.1-0.4,3.5-11,8.3-21.7
							c7.6-16.9,14.6-24.3,22.4-23.9c7.8-0.4,14.8,7,22.4,23.9c4.8,10.6,8.1,21.2,8.3,21.7c1.1,3.5-0.9,7.2-4.4,8.3
							c-3.5,1.1-7.2-0.9-8.3-4.4c-5.3-17.1-13.7-34.1-17.8-36.2c-0.1,0-0.2,0-0.3,0c-4.1,2.2-12.4,19.2-17.8,36.2
							C195.8,421.8,193.2,423.7,190.4,423.7z"/>
					</g>
				</g>
			</g>
		</g>
	</g>
</g>
</svg>
